# xmcd
#
# Track frame offsets:
#	180
#	10623
#	26833
#	41284
#	61651
#	79878
#	97810
#	107633
#	122313
#	132830
#	146524
#	166278
#	177895
#	193001
#	210193
#	222434
#	225205
#	247173
#	274746
#	284926
#	298017
#	315979
#
# Disc length: 4430 seconds
#
# Revision: 1
# Processed by: cddbd v1.4PL0 Copyright (c) Steve Scherf et al.
# Submitted via: audiograbber 1.81.03
#
DISCID=2d114c16
DTITLE=Various Artist - Harp Legends II
DYEAR=1997
DGENRE=Blues
TTITLE0=King Biscuit Boy - Step Back Baby
TTITLE1=The Paul DeLay Band - All My Money Gone
TTITLE2=The Muddy Waters Band - Boogie Thing
TTITLE3=Carey Bell and Willie Williams - Alcoholic Man
TTITLE4=Billy Boy Arnold - Annie Lee
TTITLE5=Paul Lamb and Todd Sharpville - All Nite Long
TTITLE6=Big Walter "Shakey" Horton - Hound Dog
TTITLE7=Sonny Blake and Mose Vinson - When You Get Rid Of My Mule
TTITLE8=King Biscuit Boy - Castin' My Spell
TTITLE9=Big Walter "Shakey" Horton - Mean Mistreater
TTITLE10=Paul Orta and The Kingpins - Pretty Baby
TTITLE11=Lester Davenport - Lester's Comet
TTITLE12=Jimmy Reed - Down At The Grocery Store
TTITLE13=Billy Boy Arnold and Martin Stone - It Ain't Right
TTITLE14=Little Walter - Mean Old World
TTITLE15=Big Walter "Shakey" Horton - John Henry
TTITLE16=Carey Bell and Buster Benton - Lonesome For A Dime
TTITLE17=Charlie Musselwhite - Everybody Needs Somebody
TTITLE18=The Paul DeLay Band - I Want To Be Loved
TTITLE19=Sonny Boy Willamson - Bye Bye Bird
TTITLE20=Louisiana Red - Let These Blues
TTITLE21=Big Walter "Shakey" Horton - Shakey's Edmonton Blues
EXTD=
EXTT0=
EXTT1=
EXTT2=
EXTT3=
EXTT4=
EXTT5=
EXTT6=
EXTT7=
EXTT8=
EXTT9=
EXTT10=
EXTT11=
EXTT12=
EXTT13=
EXTT14=
EXTT15=
EXTT16=
EXTT17=
EXTT18=
EXTT19=
EXTT20=
EXTT21=
PLAYORDER=
